<svg width="24" height="24" viewBox="0 0 24 24" fill="none" xmlns="http://www.w3.org/2000/svg">
<path d="M10.7505 14.5013V14.5013C10.7505 16.1581 12.0936 17.5013 13.7505 17.5013H16.0005L19.0005 20.0013V17.5013V17.5013C20.105 17.5013 21.0005 16.6059 21.0005 15.5013V11.2513C21.0005 9.59444 19.6573 8.25129 18.0005 8.25129V8.25129M6.5 14.5V14.5C6.03558 14.5 5.80337 14.5 5.60842 14.4743C4.26222 14.2971 3.2029 13.2378 3.02567 11.8916C3 11.6966 3 11.4644 3 11V9.25C3 7.14331 3 6.08996 3.50559 5.33329C3.72447 5.00572 4.00572 4.72447 4.33329 4.50559C5.08996 4 6.14331 4 8.25 4H12.75C14.8567 4 15.91 4 16.6667 4.50559C16.9943 4.72447 17.2755 5.00572 17.4944 5.33329C18 6.08996 18 7.14331 18 9.25V9.25C18 11.3567 18 12.41 17.4944 13.1667C17.2755 13.4943 16.9943 13.7755 16.6667 13.9944C15.91 14.5 14.8567 14.5 12.75 14.5H10.5L5.5 17L6.5 14.5Z" stroke="#006A66" stroke-width="1.5" stroke-linecap="round" stroke-linejoin="round"/>
</svg>
