<svg width="20" height="21" viewBox="0 0 20 21" fill="none" xmlns="http://www.w3.org/2000/svg">
<path d="M16.0332 5.62897H15.6998L12.8832 2.8123C12.6582 2.5873 12.2915 2.5873 12.0582 2.8123C11.8332 3.0373 11.8332 3.40397 12.0582 3.6373L14.0498 5.62897H5.94984L7.9415 3.6373C8.1665 3.4123 8.1665 3.04564 7.9415 2.8123C7.7165 2.5873 7.34984 2.5873 7.1165 2.8123L4.30817 5.62897H3.97484C3.22484 5.62897 1.6665 5.62897 1.6665 7.7623C1.6665 8.57064 1.83317 9.10397 2.18317 9.45397C2.38317 9.6623 2.62484 9.77064 2.88317 9.82897C3.12484 9.8873 3.38317 9.89564 3.63317 9.89564H16.3665C16.6248 9.89564 16.8665 9.87897 17.0998 9.82897C17.7998 9.6623 18.3332 9.1623 18.3332 7.7623C18.3332 5.62897 16.7748 5.62897 16.0332 5.62897Z" fill="#006A66"/>
<path d="M15.875 10.9785H4.05838C3.54171 10.9785 3.15005 11.4368 3.23338 11.9452L3.93338 16.2285C4.16671 17.6618 4.79171 19.3118 7.56671 19.3118H12.2417C15.05 19.3118 15.55 17.9035 15.85 16.3285L16.6917 11.9702C16.7917 11.4535 16.4 10.9785 15.875 10.9785ZM8.84171 16.3535C8.84171 16.6785 8.58338 16.9368 8.26671 16.9368C7.94171 16.9368 7.68338 16.6785 7.68338 16.3535V13.6035C7.68338 13.2868 7.94171 13.0202 8.26671 13.0202C8.58338 13.0202 8.84171 13.2868 8.84171 13.6035V16.3535ZM12.4084 16.3535C12.4084 16.6785 12.15 16.9368 11.825 16.9368C11.5084 16.9368 11.2417 16.6785 11.2417 16.3535V13.6035C11.2417 13.2868 11.5084 13.0202 11.825 13.0202C12.15 13.0202 12.4084 13.2868 12.4084 13.6035V16.3535Z" fill="#006A66"/>
</svg>
