<svg width="21" height="22" viewBox="0 0 21 22" fill="none" xmlns="http://www.w3.org/2000/svg">
<path d="M15.0063 9.74023C15.4896 9.74023 15.8813 9.34848 15.8813 8.86523C15.8813 8.38199 15.4896 7.99023 15.0063 7.99023C14.5231 7.99023 14.1313 8.38199 14.1313 8.86523C14.1313 9.34848 14.5231 9.74023 15.0063 9.74023Z" fill="#006A66"/>
<path d="M15.0063 14.9902C15.4896 14.9902 15.8813 14.5985 15.8813 14.1152C15.8813 13.632 15.4896 13.2402 15.0063 13.2402C14.5231 13.2402 14.1313 13.632 14.1313 14.1152C14.1313 14.5985 14.5231 14.9902 15.0063 14.9902Z" fill="#006A66"/>
<path d="M17.2808 12.3652C17.764 12.3652 18.1558 11.9735 18.1558 11.4902C18.1558 11.007 17.764 10.6152 17.2808 10.6152C16.7975 10.6152 16.4058 11.007 16.4058 11.4902C16.4058 11.9735 16.7975 12.3652 17.2808 12.3652Z" fill="#006A66"/>
<path d="M5.94971 9.74023C6.43296 9.74023 6.82471 9.34848 6.82471 8.86523C6.82471 8.38199 6.43296 7.99023 5.94971 7.99023C5.46646 7.99023 5.07471 8.38199 5.07471 8.86523C5.07471 9.34848 5.46646 9.74023 5.94971 9.74023Z" fill="#006A66"/>
<path d="M5.94971 14.9902C6.43296 14.9902 6.82471 14.5985 6.82471 14.1152C6.82471 13.632 6.43296 13.2402 5.94971 13.2402C5.46646 13.2402 5.07471 13.632 5.07471 14.1152C5.07471 14.5985 5.46646 14.9902 5.94971 14.9902Z" fill="#006A66"/>
<path d="M3.6748 12.3652C4.15805 12.3652 4.5498 11.9735 4.5498 11.4902C4.5498 11.007 4.15805 10.6152 3.6748 10.6152C3.19156 10.6152 2.7998 11.007 2.7998 11.4902C2.7998 11.9735 3.19156 12.3652 3.6748 12.3652Z" fill="#006A66"/>
<path d="M13.9126 6.41504C14.3958 6.41504 14.7876 6.02329 14.7876 5.54004C14.7876 5.05679 14.3958 4.66504 13.9126 4.66504C13.4293 4.66504 13.0376 5.05679 13.0376 5.54004C13.0376 6.02329 13.4293 6.41504 13.9126 6.41504Z" fill="#006A66"/>
<path d="M7.0874 6.41504C7.57065 6.41504 7.9624 6.02329 7.9624 5.54004C7.9624 5.05679 7.57065 4.66504 7.0874 4.66504C6.60415 4.66504 6.2124 5.05679 6.2124 5.54004C6.2124 6.02329 6.60415 6.41504 7.0874 6.41504Z" fill="#006A66"/>
<path d="M10.5435 7.11523C11.0267 7.11523 11.4185 6.72348 11.4185 6.24023C11.4185 5.75699 11.0267 5.36523 10.5435 5.36523C10.0602 5.36523 9.66846 5.75699 9.66846 6.24023C9.66846 6.72348 10.0602 7.11523 10.5435 7.11523Z" fill="#006A66"/>
<path d="M13.9126 18.4902C14.3958 18.4902 14.7876 18.0985 14.7876 17.6152C14.7876 17.132 14.3958 16.7402 13.9126 16.7402C13.4293 16.7402 13.0376 17.132 13.0376 17.6152C13.0376 18.0985 13.4293 18.4902 13.9126 18.4902Z" fill="#006A66"/>
<path d="M7.0874 18.4902C7.57065 18.4902 7.9624 18.0985 7.9624 17.6152C7.9624 17.132 7.57065 16.7402 7.0874 16.7402C6.60415 16.7402 6.2124 17.132 6.2124 17.6152C6.2124 18.0985 6.60415 18.4902 7.0874 18.4902Z" fill="#006A66"/>
<path d="M10.5435 17.79C11.0267 17.79 11.4185 17.3983 11.4185 16.915C11.4185 16.4318 11.0267 16.04 10.5435 16.04C10.0602 16.04 9.66846 16.4318 9.66846 16.915C9.66846 17.3983 10.0602 17.79 10.5435 17.79Z" fill="#006A66"/>
<path d="M12.0312 9.95801C12.6353 9.95801 13.125 9.46832 13.125 8.86426C13.125 8.2602 12.6353 7.77051 12.0312 7.77051C11.4272 7.77051 10.9375 8.2602 10.9375 8.86426C10.9375 9.46832 11.4272 9.95801 12.0312 9.95801Z" fill="#006A66"/>
<path d="M8.96875 9.95801C9.57281 9.95801 10.0625 9.46832 10.0625 8.86426C10.0625 8.2602 9.57281 7.77051 8.96875 7.77051C8.36469 7.77051 7.875 8.2602 7.875 8.86426C7.875 9.46832 8.36469 9.95801 8.96875 9.95801Z" fill="#006A66"/>
<path d="M13.5625 12.583C14.1666 12.583 14.6562 12.0933 14.6562 11.4893C14.6562 10.8852 14.1666 10.3955 13.5625 10.3955C12.9584 10.3955 12.4688 10.8852 12.4688 11.4893C12.4688 12.0933 12.9584 12.583 13.5625 12.583Z" fill="#006A66"/>
<path d="M7.4375 12.583C8.04156 12.583 8.53125 12.0933 8.53125 11.4893C8.53125 10.8852 8.04156 10.3955 7.4375 10.3955C6.83344 10.3955 6.34375 10.8852 6.34375 11.4893C6.34375 12.0933 6.83344 12.583 7.4375 12.583Z" fill="#006A66"/>
<path d="M8.96875 15.208C9.57281 15.208 10.0625 14.7183 10.0625 14.1143C10.0625 13.5102 9.57281 13.0205 8.96875 13.0205C8.36469 13.0205 7.875 13.5102 7.875 14.1143C7.875 14.7183 8.36469 15.208 8.96875 15.208Z" fill="#006A66"/>
<path d="M12.0312 15.208C12.6353 15.208 13.125 14.7183 13.125 14.1143C13.125 13.5102 12.6353 13.0205 12.0312 13.0205C11.4272 13.0205 10.9375 13.5102 10.9375 14.1143C10.9375 14.7183 11.4272 15.208 12.0312 15.208Z" fill="#006A66"/>
<path d="M10.5 3.90328C10.0712 3.90328 9.72998 3.56203 9.72998 3.13328C9.72998 2.70453 10.0712 2.36328 10.5 2.36328C10.9287 2.36328 11.27 2.70453 11.27 3.13328C11.27 3.56203 10.9287 3.90328 10.5 3.90328Z" fill="#006A66"/>
<path d="M15.0942 4.13867C14.7267 4.13867 14.4292 3.84117 14.4292 3.48242C14.4292 3.12367 14.7267 2.82617 15.0854 2.82617C15.4442 2.82617 15.7505 3.12367 15.7505 3.48242C15.7505 3.84117 15.4617 4.13867 15.0942 4.13867Z" fill="#006A66"/>
<path d="M5.90625 4.13867C5.5475 4.13867 5.25 3.84117 5.25 3.48242C5.25 3.12367 5.53875 2.82617 5.90625 2.82617H5.91501C6.27376 2.82617 6.57126 3.12367 6.57126 3.48242C6.57126 3.84117 6.27375 4.13867 5.90625 4.13867Z" fill="#006A66"/>
<path d="M10.5005 20.5712C10.0717 20.5712 9.73047 20.23 9.73047 19.8012C9.73047 19.3725 10.0717 19.0312 10.5005 19.0312C10.9292 19.0312 11.2705 19.3725 11.2705 19.8012C11.2705 20.23 10.9292 20.5712 10.5005 20.5712Z" fill="#006A66"/>
<path d="M15.0942 20.1074C14.7267 20.1074 14.4292 19.8099 14.4292 19.4512C14.4292 19.0924 14.7267 18.7949 15.0854 18.7949C15.4442 18.7949 15.7505 19.0924 15.7505 19.4512C15.7505 19.8099 15.4617 20.1074 15.0942 20.1074Z" fill="#006A66"/>
<path d="M5.90625 20.1074C5.5475 20.1074 5.25 19.8099 5.25 19.4512C5.25 19.0924 5.53875 18.7949 5.90625 18.7949H5.91501C6.27376 18.7949 6.57126 19.0924 6.57126 19.4512C6.57126 19.8099 6.27375 20.1074 5.90625 20.1074Z" fill="#006A66"/>
<path d="M1.3564 12.2588C0.936403 12.2588 0.586426 11.9175 0.586426 11.4975V11.4888C0.586426 11.0688 0.927653 10.7188 1.3564 10.7188C1.78515 10.7188 2.12641 11.06 2.12641 11.4888C2.12641 11.9175 1.7764 12.2588 1.3564 12.2588Z" fill="#006A66"/>
<path d="M3.28125 16.5205C2.9225 16.5205 2.625 16.2317 2.625 15.8642V15.8555C2.625 15.4967 2.9225 15.1992 3.28125 15.1992C3.64 15.1992 3.9375 15.4967 3.9375 15.8555C3.9375 16.2142 3.64 16.5205 3.28125 16.5205Z" fill="#006A66"/>
<path d="M3.28125 7.7793C2.9225 7.7793 2.625 7.4818 2.625 7.12305C2.625 6.7643 2.9225 6.4668 3.28125 6.4668C3.64 6.4668 3.9375 6.75555 3.9375 7.1143V7.12305C3.9375 7.4818 3.64 7.7793 3.28125 7.7793Z" fill="#006A66"/>
<path d="M19.688 12.2588C19.268 12.2588 18.918 11.9175 18.918 11.4975V11.4888C18.918 11.0688 19.2592 10.7188 19.688 10.7188C20.1167 10.7188 20.458 11.06 20.458 11.4888C20.458 11.9175 20.108 12.2588 19.688 12.2588Z" fill="#006A66"/>
<path d="M17.7627 16.5205C17.4039 16.5205 17.1064 16.2317 17.1064 15.8642V15.8555C17.1064 15.4967 17.4039 15.1992 17.7627 15.1992C18.1214 15.1992 18.4189 15.4967 18.4189 15.8555C18.4189 16.2142 18.1214 16.5205 17.7627 16.5205Z" fill="#006A66"/>
<path d="M17.7627 7.7793C17.4039 7.7793 17.1064 7.4818 17.1064 7.12305C17.1064 6.7643 17.4039 6.4668 17.7627 6.4668C18.1214 6.4668 18.4189 6.75555 18.4189 7.12305V7.1318C18.4189 7.4818 18.1214 7.7793 17.7627 7.7793Z" fill="#006A66"/>
</svg>
