<svg width="24" height="25" viewBox="0 0 24 25" fill="none" xmlns="http://www.w3.org/2000/svg">
<path d="M11.9885 12.0661H20.9852M20.9852 12.0661L18.4861 9.567M20.9852 12.0661L18.4861 14.5652M14.9874 8.56736V8.4674C14.9874 6.21837 14.9874 5.09385 14.4146 4.30554C14.2297 4.05094 14.0058 3.82705 13.7512 3.64208C12.9629 3.06934 11.8384 3.06934 9.58933 3.06934H8.38976C6.14073 3.06934 5.01621 3.06934 4.2279 3.64208C3.97331 3.82705 3.74942 4.05094 3.56444 4.30554C2.9917 5.09385 2.9917 6.21837 2.9917 8.4674V15.6648C2.9917 17.9138 2.9917 19.0384 3.56444 19.8267C3.74942 20.0813 3.97331 20.3052 4.2279 20.4901C5.01621 21.0629 6.14073 21.0629 8.38976 21.0629H9.58933C11.8384 21.0629 12.9629 21.0629 13.7512 20.4901C14.0058 20.3052 14.2297 20.0813 14.4146 19.8267C14.9874 19.0384 14.9874 17.9138 14.9874 15.6648V15.5649" stroke="#006A66" stroke-width="1.49946" stroke-linecap="round" stroke-linejoin="round"/>
</svg>
