<svg width="24" height="25" viewBox="0 0 24 25" fill="none" xmlns="http://www.w3.org/2000/svg">
<path d="M10.7412 14.5931V14.5931C10.7412 16.2499 12.0843 17.5931 13.7412 17.5931H15.9912L18.9912 20.0931V17.5931V17.5931C20.0957 17.5931 20.9912 16.6977 20.9912 15.5931V11.3431C20.9912 9.68623 19.648 8.34309 17.9912 8.34309V8.34309M6.49072 14.5918V14.5918C6.0263 14.5918 5.79409 14.5918 5.59914 14.5661C4.25294 14.3889 3.19362 13.3296 3.01639 11.9834C2.99072 11.7884 2.99072 11.5562 2.99072 11.0918V9.3418C2.99072 7.2351 2.99072 6.18176 3.49631 5.42509C3.71519 5.09752 3.99644 4.81626 4.32401 4.59739C5.08068 4.0918 6.13403 4.0918 8.24072 4.0918H12.7407C14.8474 4.0918 15.9008 4.0918 16.6574 4.59739C16.985 4.81626 17.2663 5.09752 17.4851 5.42509C17.9907 6.18176 17.9907 7.2351 17.9907 9.3418V9.3418C17.9907 11.4485 17.9907 12.5018 17.4851 13.2585C17.2663 13.5861 16.985 13.8673 16.6574 14.0862C15.9008 14.5918 14.8474 14.5918 12.7407 14.5918H10.4907L5.49072 17.0918L6.49072 14.5918Z" stroke="#006A66" stroke-width="1.5" stroke-linecap="round" stroke-linejoin="round"/>
</svg>
