<svg width="24" height="25" viewBox="0 0 24 25" fill="none" xmlns="http://www.w3.org/2000/svg">
<path d="M9.74072 9.75942C9.74072 8.56497 10.7481 7.59668 11.9907 7.59668C13.2334 7.59668 14.2407 8.56497 14.2407 9.75942C14.2407 10.4807 13.8734 11.1194 13.3088 11.5124C12.9958 11.7303 12.6197 11.8597 12.3552 12.1346C11.7301 12.7841 11.5613 13.7652 12.0084 14.5967M20.9907 12.0967C20.9907 17.0672 16.9613 21.0967 11.9907 21.0967C7.02016 21.0967 2.99072 17.0672 2.99072 12.0967C2.99072 7.12612 7.02016 3.09668 11.9907 3.09668C16.9613 3.09668 20.9907 7.12612 20.9907 12.0967Z" stroke="#006A66" stroke-width="1.5" stroke-linecap="round" stroke-linejoin="round"/>
</svg>
