<svg width="24" height="25" viewBox="0 0 24 25" fill="none" xmlns="http://www.w3.org/2000/svg">
<path d="M14.4902 12.1006C14.4902 13.4813 13.371 14.6006 11.9902 14.6006C10.6095 14.6006 9.49024 13.4813 9.49024 12.1006C9.49024 10.7199 10.6095 9.60059 11.9902 9.60059C13.371 9.60059 14.4902 10.7199 14.4902 12.1006Z" stroke="#006A66" stroke-width="1.5"/>
<path d="M9.15269 4.79309C9.69902 4.17842 9.97218 3.87108 10.2469 3.67492C11.2898 2.93021 12.6906 2.93021 13.7336 3.67492C14.0083 3.87108 14.2815 4.17842 14.8278 4.79309V4.79309C15.0015 4.9885 15.0883 5.08621 15.181 5.17413C15.5243 5.49979 15.9397 5.73964 16.3934 5.87409C16.5158 5.91038 16.6439 5.93674 16.8999 5.98945V5.98945C17.7054 6.15525 18.1082 6.23815 18.4154 6.37798C19.5818 6.90883 20.2822 8.12197 20.1587 9.39753C20.1262 9.73352 19.9966 10.1238 19.7375 10.9042V10.9042C19.6551 11.1524 19.6139 11.2764 19.5841 11.4006C19.4737 11.8607 19.4737 12.3404 19.5841 12.8005C19.6139 12.9248 19.6551 13.0488 19.7375 13.2969V13.2969C19.9966 14.0774 20.1262 14.4677 20.1587 14.8036C20.2822 16.0792 19.5818 17.2923 18.4154 17.8232C18.1082 17.963 17.7054 18.0459 16.8999 18.2117V18.2117C16.6439 18.2644 16.5158 18.2908 16.3934 18.3271C15.9397 18.4615 15.5243 18.7014 15.181 19.027C15.0883 19.115 15.0015 19.2127 14.8278 19.4081V19.4081C14.2815 20.0228 14.0083 20.3301 13.7336 20.5263C12.6906 21.271 11.2898 21.271 10.2469 20.5263C9.97218 20.3301 9.69902 20.0228 9.15269 19.4081V19.4081C8.979 19.2127 8.89216 19.115 8.79949 19.027C8.45622 18.7014 8.04079 18.4615 7.58712 18.3271C7.46465 18.2908 7.33661 18.2644 7.08054 18.2117V18.2117C6.27505 18.0459 5.87231 17.963 5.56507 17.8232C4.39867 17.2923 3.69826 16.0792 3.82173 14.8036C3.85425 14.4677 3.98383 14.0774 4.24299 13.2969V13.2969C4.32538 13.0488 4.36657 12.9248 4.39638 12.8005C4.50678 12.3404 4.50678 11.8607 4.39638 11.4006C4.36657 11.2764 4.32538 11.1524 4.24299 10.9042V10.9042C3.98383 10.1238 3.85425 9.73352 3.82173 9.39753C3.69826 8.12197 4.39867 6.90883 5.56507 6.37798C5.87231 6.23815 6.27505 6.15525 7.08054 5.98945V5.98945C7.33661 5.93674 7.46465 5.91038 7.58712 5.87409C8.04079 5.73964 8.45622 5.49979 8.79949 5.17413C8.89216 5.08621 8.979 4.9885 9.15269 4.79309V4.79309Z" stroke="#006A66" stroke-width="1.5"/>
</svg>
