<svg width="24" height="25" viewBox="0 0 24 25" fill="none" xmlns="http://www.w3.org/2000/svg">
<path d="M4.99072 4.38769C4.99072 3.69734 5.55037 3.1377 6.24072 3.1377V3.1377C6.93108 3.1377 7.49072 3.69734 7.49072 4.3877V19.8877C7.49072 20.5781 6.93108 21.1377 6.24072 21.1377V21.1377C5.55037 21.1377 4.99072 20.5781 4.99072 19.8877V4.38769Z" stroke="#006A66" stroke-width="1.5" stroke-linejoin="round"/>
<path d="M7.49072 5.1377C10.6406 5.83767 13.0555 6.04768 15.5929 5.76773C17.0957 5.60192 17.8472 5.51902 18.2905 5.79847C18.4446 5.89556 18.5509 5.99084 18.6643 6.1333C18.9907 6.54335 18.9907 7.2275 18.9907 8.59579V12.0296C18.9907 12.9364 18.9907 13.3899 18.7617 13.7553C18.6911 13.8678 18.5909 13.9868 18.4921 14.0754C18.1709 14.3633 17.757 14.4348 16.9291 14.5778C13.8714 15.1058 11.1871 14.9591 7.49072 14.1377V5.1377Z" stroke="#006A66" stroke-width="1.5" stroke-linejoin="round"/>
</svg>
