<svg width="24" height="25" viewBox="0 0 24 25" fill="none" xmlns="http://www.w3.org/2000/svg">
<path d="M9.99491 17.8533V17.8533C9.62947 18.8372 10.3572 19.8838 11.4068 19.8838H18.0304C18.5779 19.8838 18.8516 19.8838 19.0552 19.8499C20.4425 19.6193 21.3667 18.2902 21.0999 16.9094C21.0607 16.7068 20.9654 16.4502 20.7747 15.9369V15.9369C20.6161 15.5097 20.5367 15.2961 20.4445 15.1096C19.8358 13.8797 18.6392 13.0477 17.2743 12.9054C17.0674 12.8838 16.8395 12.8838 16.3838 12.8838H14.5982C14.3852 12.8838 14.2787 12.8838 14.1729 12.8894C13.9064 12.9035 13.6421 12.9443 13.3837 13.011C13.2811 13.0376 13.1796 13.0696 12.9764 13.1338V13.1338M8.3208 8.38379C7.21623 8.38379 6.3208 7.48836 6.3208 6.38379C6.3208 5.27922 7.21623 4.38379 8.3208 4.38379C9.42537 4.38379 10.3208 5.27922 10.3208 6.38379C10.3208 7.48836 9.42537 8.38379 8.3208 8.38379ZM15.8208 10.3838C14.7162 10.3838 13.8208 9.48836 13.8208 8.38379C13.8208 7.27922 14.7162 6.38379 15.8208 6.38379C16.9254 6.38379 17.8208 7.27922 17.8208 8.38379C17.8208 9.48836 16.9254 10.3838 15.8208 10.3838ZM5.95105 17.8838H10.5304C11.0779 17.8838 11.3516 17.8838 11.5552 17.8499C12.9425 17.6193 13.8667 16.2902 13.5999 14.9094C13.5607 14.7068 13.4654 14.4502 13.2747 13.9369V13.9369C13.1161 13.5097 13.0367 13.2961 12.9445 13.1096C12.3358 11.8797 11.1392 11.0477 9.7743 10.9054C9.56743 10.8838 9.33955 10.8838 8.88379 10.8838H7.59766C7.1419 10.8838 6.91402 10.8838 6.70714 10.9054C5.34228 11.0477 4.14564 11.8797 3.53699 13.1096C3.44474 13.2961 3.36539 13.5097 3.2067 13.9369V13.9369C3.01607 14.4502 2.92075 14.7068 2.88159 14.9094C2.61473 16.2902 3.53891 17.6193 4.92622 17.8499C5.1298 17.8838 5.40355 17.8838 5.95105 17.8838Z" stroke="#006A66" stroke-width="1.5" stroke-linejoin="round"/>
</svg>
