<svg width="24" height="25" viewBox="0 0 24 25" fill="none" xmlns="http://www.w3.org/2000/svg">
<path d="M9.49072 12.6289L10.3245 13.7407C10.5963 14.103 10.7321 14.2841 10.9137 14.3239C10.9717 14.3366 11.0316 14.3388 11.0905 14.3305C11.2745 14.3045 11.4236 14.1341 11.7219 13.7933L14.4907 10.6289M11.9907 21.6289C16.5372 21.6289 19.3754 16.5799 20.5053 11.2518C20.7684 10.0109 20.9 9.39048 20.6805 8.65699C20.6162 8.44232 20.4938 8.16511 20.3785 7.97299C19.9844 7.31657 19.3472 6.94291 18.0729 6.1956L14.7223 4.23078C13.5414 3.53824 12.9509 3.19197 12.3084 3.12355C12.0972 3.10107 11.8842 3.10107 11.6731 3.12355C11.0306 3.19197 10.4401 3.53824 9.2591 4.23079L5.90856 6.1956C4.63421 6.94291 3.99703 7.31657 3.60295 7.97299C3.48762 8.16511 3.36524 8.44232 3.30099 8.65699C3.08148 9.39048 3.21305 10.0109 3.47619 11.2518C4.60605 16.5799 7.44423 21.6289 11.9907 21.6289Z" stroke="#006A66" stroke-width="1.5" stroke-linecap="round" stroke-linejoin="round"/>
</svg>
