<svg width="24" height="25" viewBox="0 0 24 25" fill="none" xmlns="http://www.w3.org/2000/svg">
<path d="M11.9907 8.17578H15.4907M8.49072 12.1758H15.4907M8.49072 16.1758H15.4907M10.3907 21.1758H13.5907C15.8406 21.1758 16.9655 21.1758 17.7541 20.6028C18.0088 20.4178 18.2327 20.1938 18.4178 19.9391C18.9907 19.1505 18.9907 18.0256 18.9907 15.7758V8.57578C18.9907 6.32594 18.9907 5.20102 18.4178 4.41243C18.2327 4.15774 18.0088 3.93377 17.7541 3.74873C16.9655 3.17578 15.8406 3.17578 13.5907 3.17578H10.3907C8.14088 3.17578 7.01596 3.17578 6.22737 3.74873C5.97268 3.93377 5.74871 4.15774 5.56367 4.41243C4.99072 5.20102 4.99072 6.32594 4.99072 8.57578V15.7758C4.99072 18.0256 4.99072 19.1505 5.56367 19.9391C5.74871 20.1938 5.97268 20.4178 6.22737 20.6028C7.01596 21.1758 8.14088 21.1758 10.3907 21.1758Z" stroke="#006A66" stroke-width="1.5" stroke-linecap="round" stroke-linejoin="round"/>
</svg>
