<svg width="24" height="25" viewBox="0 0 24 25" fill="none" xmlns="http://www.w3.org/2000/svg">
<path d="M7.99072 18.1797V15.1797M11.9907 13.1797V18.1797M15.9907 18.1797V11.1797M6.49072 11.6797L7.95532 9.97099C8.90619 8.86164 10.3744 8.34036 11.8119 8.60173V8.60173C13.8028 8.9637 15.8445 8.32591 17.2753 6.8951L17.4907 6.67969M10.1907 21.1797H13.7907C16.7905 21.1797 18.2904 21.1797 19.3419 20.4158C19.6814 20.169 19.9801 19.8704 20.2268 19.5308C20.9907 18.4794 20.9907 16.9795 20.9907 13.9797V10.3797C20.9907 7.3799 20.9907 5.88001 20.2268 4.82855C19.9801 4.48897 19.6814 4.19034 19.3419 3.94362C18.2904 3.17969 16.7905 3.17969 13.7907 3.17969H10.1907C7.19094 3.17969 5.69104 3.17969 4.63958 3.94362C4.3 4.19034 4.00137 4.48897 3.75465 4.82855C2.99072 5.88001 2.99072 7.3799 2.99072 10.3797V13.9797C2.99072 16.9795 2.99072 18.4794 3.75465 19.5308C4.00137 19.8704 4.3 20.169 4.63958 20.4158C5.69104 21.1797 7.19094 21.1797 10.1907 21.1797Z" stroke="#006A66" stroke-width="1.5" stroke-linecap="round" stroke-linejoin="round"/>
</svg>
