<svg width="24" height="25" viewBox="0 0 24 25" fill="none" xmlns="http://www.w3.org/2000/svg">
<path d="M2.99072 12.167V8.56699C2.99072 6.31715 2.99072 5.19223 3.56367 4.40364C3.74871 4.14895 3.97268 3.92498 4.22737 3.73994C5.01596 3.16699 6.14088 3.16699 8.39072 3.16699H9.38994C9.93184 3.16699 10.2028 3.16699 10.4631 3.21324C10.7819 3.26988 11.0895 3.37776 11.3738 3.53269C11.606 3.65921 11.8176 3.82847 12.2407 4.16699V4.16699C12.6639 4.50552 12.8755 4.67478 13.1076 4.8013C13.392 4.95622 13.6995 5.0641 14.0183 5.12074C14.2786 5.16699 14.5496 5.16699 15.0915 5.16699H15.5907C17.8406 5.16699 18.9655 5.16699 19.7541 5.73994C20.0088 5.92498 20.2327 6.14895 20.4178 6.40364C20.9907 7.19223 20.9907 8.31715 20.9907 10.567V12.167M9.38994 7.16699H8.39072C6.14088 7.16699 5.01596 7.16699 4.22737 7.73994C3.97268 7.92498 3.74871 8.14895 3.56367 8.40364C2.99072 9.19223 2.99072 10.3172 2.99072 12.567V15.767C2.99072 18.0168 2.99072 19.1418 3.56367 19.9303C3.74871 20.185 3.97268 20.409 4.22737 20.594C5.01596 21.167 6.14088 21.167 8.39072 21.167H15.5907C17.8406 21.167 18.9655 21.167 19.7541 20.594C20.0088 20.409 20.2327 20.185 20.4178 19.9303C20.9907 19.1418 20.9907 18.0168 20.9907 15.767V14.567C20.9907 12.3172 20.9907 11.1922 20.4178 10.4036C20.2327 10.149 20.0088 9.92498 19.7541 9.73994C18.9655 9.16699 17.8406 9.16699 15.5907 9.16699H15.0915C14.5496 9.16699 14.2786 9.16699 14.0183 9.12074C13.6995 9.0641 13.392 8.95622 13.1076 8.8013C12.8755 8.67478 12.6639 8.50552 12.2407 8.16699V8.16699C11.8176 7.82847 11.606 7.65921 11.3738 7.53269C11.0895 7.37776 10.7819 7.26988 10.4631 7.21324C10.2028 7.16699 9.93184 7.16699 9.38994 7.16699Z" stroke="#006A66" stroke-width="1.5" stroke-linecap="round" stroke-linejoin="round"/>
</svg>
