<svg width="25" height="25" viewBox="0 0 25 25" fill="none" xmlns="http://www.w3.org/2000/svg">
<path d="M6.62481 7.56123C9.27627 4.90977 10.602 3.58403 12.2066 3.32989C12.7248 3.24781 13.2527 3.24781 13.7709 3.32989C15.3755 3.58403 16.7013 4.90977 19.3527 7.56123V7.56123C20.5071 8.71559 21.0843 9.29277 21.4438 9.99838C21.5627 10.2318 21.6631 10.4741 21.7441 10.7232C21.9888 11.4764 21.9888 12.2927 21.9888 13.9252V18.1973C21.9888 19.8541 20.6456 21.1973 18.9888 21.1973V21.1973C17.3319 21.1973 15.9888 19.8541 15.9888 18.1973V17.1973C15.9888 15.5404 14.6456 14.1973 12.9888 14.1973V14.1973C11.3319 14.1973 9.98877 15.5404 9.98877 17.1973V18.1973C9.98877 19.8541 8.64562 21.1973 6.98877 21.1973V21.1973C5.33192 21.1973 3.98877 19.8541 3.98877 18.1973V13.9252C3.98877 12.2927 3.98877 11.4764 4.23349 10.7232C4.31443 10.4741 4.41482 10.2318 4.53374 9.99838C4.89326 9.29277 5.47044 8.71559 6.62481 7.56123V7.56123Z" stroke="#006A66" stroke-width="1.5" stroke-linejoin="round"/>
</svg>
