<svg width="24" height="25" viewBox="0 0 24 25" fill="none" xmlns="http://www.w3.org/2000/svg">
<path d="M2.99072 12.1885C2.99072 9.85877 2.99072 8.69391 3.37132 7.77506C3.87879 6.54992 4.85217 5.57655 6.07731 5.06908C6.99616 4.68848 8.16101 4.68848 10.4907 4.68848H13.4907C15.8204 4.68848 16.9853 4.68848 17.9041 5.06908C19.1293 5.57655 20.1027 6.54992 20.6101 7.77506C20.9907 8.69391 20.9907 9.85877 20.9907 12.1885V12.1885C20.9907 14.5182 20.9907 15.683 20.6101 16.6019C20.1027 17.827 19.1293 18.8004 17.9041 19.3079C16.9853 19.6885 15.8204 19.6885 13.4907 19.6885H10.4907C8.16101 19.6885 6.99616 19.6885 6.07731 19.3079C4.85217 18.8004 3.87879 17.827 3.37132 16.6019C2.99072 15.683 2.99072 14.5182 2.99072 12.1885V12.1885Z" stroke="#006A66" stroke-width="1.5" stroke-linejoin="round"/>
<path d="M2.99072 8.18848L6.46558 10.891C8.81521 12.7184 9.99002 13.6321 11.332 13.8105C11.7695 13.8687 12.2127 13.8687 12.6502 13.8105C13.9922 13.632 15.167 12.7183 17.5165 10.8908L20.9907 8.18848" stroke="#006A66" stroke-width="1.5" stroke-linejoin="round"/>
</svg>
