<svg width="24" height="25" viewBox="0 0 24 25" fill="none" xmlns="http://www.w3.org/2000/svg">
<path d="M8.99072 5.18457V5.18457C8.06172 5.18457 7.59721 5.18457 7.20855 5.24613C5.06909 5.58499 3.39114 7.26294 3.05228 9.4024C2.99072 9.79106 2.99072 10.2556 2.99072 11.1846V13.1846C2.99072 15.9848 2.99072 17.385 3.53569 18.4545C4.01506 19.3953 4.77996 20.1602 5.72077 20.6396C6.79033 21.1846 8.19046 21.1846 10.9907 21.1846H12.9907C15.791 21.1846 17.1911 21.1846 18.2607 20.6396C19.2015 20.1602 19.9664 19.3953 20.4458 18.4545C20.9907 17.385 20.9907 15.9848 20.9907 13.1846V11.1846C20.9907 10.2556 20.9907 9.79106 20.9292 9.4024C20.5903 7.26294 18.9124 5.58499 16.7729 5.24613C16.3842 5.18457 15.9197 5.18457 14.9907 5.18457V5.18457M8.99072 5.18457V6.68457M8.99072 5.18457V3.18457M8.99072 5.18457H14.9907M14.9907 5.18457V3.18457M14.9907 5.18457V6.68457M10.102 11.8834H9.52983C8.52586 11.8834 8.02388 11.8834 7.87659 12.1155C7.83146 12.1866 7.80503 12.268 7.79974 12.352C7.78248 12.6264 8.18859 12.9214 9.00082 13.5115L9.46372 13.8478C9.68971 14.012 9.8027 14.0941 9.85736 14.2103C9.87522 14.2482 9.88823 14.2883 9.89609 14.3295C9.92014 14.4556 9.87699 14.5884 9.79067 14.8541L9.61385 15.3983C9.30361 16.3531 9.14849 16.8305 9.3237 17.0423C9.37739 17.1072 9.44659 17.1575 9.5249 17.1885C9.78047 17.2897 10.1866 16.9946 10.9988 16.4045L11.4617 16.0682C11.6877 15.904 11.8007 15.8219 11.9281 15.8058C11.9697 15.8005 12.0118 15.8005 12.0534 15.8058C12.1808 15.8219 12.2937 15.904 12.5197 16.0682L12.9826 16.4045C13.7949 16.9946 14.201 17.2897 14.4565 17.1885C14.5349 17.1575 14.6041 17.1072 14.6577 17.0423C14.833 16.8305 14.6778 16.3531 14.3676 15.3983L14.1908 14.8541C14.1045 14.5884 14.0613 14.4556 14.0854 14.3295C14.0932 14.2883 14.1062 14.2482 14.1241 14.2103C14.1787 14.0941 14.2917 14.012 14.5177 13.8478L14.9806 13.5115C15.7929 12.9214 16.199 12.6264 16.1817 12.352C16.1764 12.268 16.15 12.1866 16.1049 12.1155C15.9576 11.8834 15.4556 11.8834 14.4516 11.8834H13.8794C13.6001 11.8834 13.4604 11.8834 13.3479 11.8216C13.3112 11.8014 13.2771 11.7766 13.2465 11.7479C13.153 11.66 13.1098 11.5272 13.0235 11.2615L12.8467 10.7174C12.5364 9.76252 12.3813 9.28511 12.1151 9.21675C12.0335 9.19581 11.948 9.19581 11.8664 9.21675C11.6001 9.28511 11.445 9.76252 11.1348 10.7174L10.958 11.2615C10.8716 11.5272 10.8285 11.66 10.7349 11.7479C10.7043 11.7766 10.6703 11.8014 10.6335 11.8216C10.521 11.8834 10.3813 11.8834 10.102 11.8834Z" stroke="#006A66" stroke-width="1.5" stroke-linecap="round" stroke-linejoin="round"/>
</svg>
