<svg width="24" height="25" viewBox="0 0 24 25" fill="none" xmlns="http://www.w3.org/2000/svg">
<path d="M2.99072 13.1709V13.9709C2.99072 16.9707 2.99072 18.4706 3.75465 19.522C4.00137 19.8616 4.3 20.1602 4.63958 20.407C5.69104 21.1709 7.19094 21.1709 10.1907 21.1709H13.7907C16.7905 21.1709 18.2904 21.1709 19.3419 20.407C19.6814 20.1602 19.9801 19.8616 20.2268 19.522C20.9907 18.4706 20.9907 16.9707 20.9907 13.9709V13.1709M2.99072 13.1709V13.1709C2.99072 11.3071 2.99072 10.3752 3.2952 9.64016C3.70118 8.66005 4.47988 7.88136 5.45999 7.47538C6.19507 7.1709 7.12696 7.1709 8.99072 7.1709H14.9907C16.8545 7.1709 17.7864 7.1709 18.5215 7.47538C19.5016 7.88136 20.2803 8.66005 20.6862 9.64016C20.9907 10.3752 20.9907 11.3071 20.9907 13.1709V13.1709M2.99072 13.1709H20.9907M9.99072 10.1709H13.9907M7.99072 7.1709V7.1709C7.99072 4.96176 9.78158 3.1709 11.9907 3.1709V3.1709C14.1999 3.1709 15.9907 4.96176 15.9907 7.1709V7.1709" stroke="#006A66" stroke-width="1.5" stroke-linecap="round" stroke-linejoin="round"/>
</svg>
