<svg width="59" height="58" viewBox="0 0 59 58" fill="none" xmlns="http://www.w3.org/2000/svg">
<path opacity="0.21" fill-rule="evenodd" clip-rule="evenodd" d="M0.828125 29.052V35.7445C0.828125 47.8889 10.6731 57.7339 22.8176 57.7339H29.51H36.2025C48.3469 57.7339 58.1919 47.8889 58.1919 35.7444V29.052V22.3596C58.1919 10.2151 48.3469 0.370117 36.2025 0.370117H29.51H22.8176C10.6731 0.370117 0.828125 10.2151 0.828125 22.3596V29.052Z" fill="#8280FF"/>
<path opacity="0.587821" fill-rule="evenodd" clip-rule="evenodd" d="M20.5864 22.6781C20.5864 25.4942 22.8693 27.7771 25.6854 27.7771C28.5015 27.7771 30.7844 25.4942 30.7844 22.6781C30.7844 19.862 28.5015 17.5791 25.6854 17.5791C22.8693 17.5791 20.5864 19.862 20.5864 22.6781ZM33.3339 27.7773C33.3339 29.8894 35.0461 31.6016 37.1582 31.6016C39.2703 31.6016 40.9824 29.8894 40.9824 27.7773C40.9824 25.6652 39.2703 23.9531 37.1582 23.9531C35.0461 23.9531 33.3339 25.6652 33.3339 27.7773Z" fill="#8280FF"/>
<path fill-rule="evenodd" clip-rule="evenodd" d="M25.6644 30.3262C19.6458 30.3262 14.7078 33.4194 14.2137 39.5034C14.1868 39.8348 14.8206 40.5242 15.1403 40.5242H36.1981C37.1558 40.5242 37.1706 39.7536 37.1558 39.5044C36.7822 33.2494 31.7678 30.3262 25.6644 30.3262ZM44.1131 40.5247H39.198C39.1979 37.6553 38.2498 35.0073 36.6498 32.8769C40.9922 32.9244 44.5379 35.1199 44.8047 39.7598C44.8155 39.9467 44.8047 40.5247 44.1131 40.5247Z" fill="#8280FF"/>
</svg>
