<svg width="58" height="58" viewBox="0 0 58 58" fill="none" xmlns="http://www.w3.org/2000/svg">
<path opacity="0.21" fill-rule="evenodd" clip-rule="evenodd" d="M-0.00146484 29.052V35.7445C-0.00146484 47.8889 9.84356 57.7339 21.988 57.7339H28.6804H35.3729C47.5173 57.7339 57.3623 47.8889 57.3623 35.7444V29.052V22.3596C57.3623 10.2151 47.5173 0.370117 35.3729 0.370117H28.6804H21.988C9.84355 0.370117 -0.00146484 10.2151 -0.00146484 22.3596V29.052Z" fill="#FEC53D"/>
<path fill-rule="evenodd" clip-rule="evenodd" d="M14.3389 23.6173L26.6726 30.7381C26.8054 30.8148 26.9446 30.8702 27.0864 30.9053V44.7159L15.2185 37.6925C14.6733 37.3698 14.3389 36.7833 14.3389 36.1498V23.6173ZM43.0206 23.4277V36.1495C43.0206 36.7831 42.6862 37.3696 42.141 37.6922L30.2731 44.7157V30.7841C30.302 30.7697 30.3307 30.7543 30.359 30.7379L43.0206 23.4277Z" fill="#FEC53D"/>
<path opacity="0.499209" fill-rule="evenodd" clip-rule="evenodd" d="M14.7266 20.1619C14.8772 19.9716 15.0674 19.8108 15.2891 19.6928L27.8374 13.0093C28.3642 12.7287 28.996 12.7287 29.5228 13.0093L42.0711 19.6928C42.242 19.7838 42.3942 19.9002 42.5239 20.0359L28.766 27.979C28.6756 28.0313 28.5922 28.091 28.5162 28.1571C28.4401 28.091 28.3567 28.0313 28.2663 27.979L14.7266 20.1619Z" fill="#FEC53D"/>
</svg>
