<svg width="58" height="58" viewBox="0 0 58 58" fill="none" xmlns="http://www.w3.org/2000/svg">
<path opacity="0.3" fill-rule="evenodd" clip-rule="evenodd" d="M0.338867 29.052V35.7445C0.338867 47.8889 10.1839 57.7339 22.3283 57.7339H29.0208H35.7132C47.8576 57.7339 57.7027 47.8889 57.7027 35.7444V29.052V22.3596C57.7027 10.2151 47.8576 0.370117 35.7132 0.370117H29.0208H22.3283C10.1839 0.370117 0.338867 10.2151 0.338867 22.3596V29.052Z" fill="#FF9066"/>
<path opacity="0.78" fill-rule="evenodd" clip-rule="evenodd" d="M27.7124 23.1328C27.7315 22.8837 27.9392 22.6914 28.189 22.6914H28.5885C28.8341 22.6914 29.0397 22.8775 29.0641 23.1219L29.6585 29.0652L33.8792 31.477C34.0282 31.5621 34.1201 31.7205 34.1201 31.8921V32.2636C34.1201 32.5788 33.8204 32.8077 33.5163 32.7247L27.4901 31.0812C27.2689 31.0209 27.1217 30.812 27.1393 30.5834L27.7124 23.1328Z" fill="#FF9066"/>
<path opacity="0.901274" fill-rule="evenodd" clip-rule="evenodd" d="M22.0628 14.6955C21.8103 14.3946 21.3227 14.5097 21.2316 14.8918L19.6699 21.4391C19.5956 21.7504 19.8424 22.0454 20.1619 22.0273L26.8972 21.6456C27.29 21.6233 27.4892 21.1625 27.2363 20.8611L25.5139 18.8083C26.6276 18.4278 27.8085 18.229 29.0211 18.229C35.0053 18.229 39.8565 23.0802 39.8565 29.0644C39.8565 35.0486 35.0053 39.8998 29.0211 39.8998C23.0369 39.8998 18.1857 35.0486 18.1857 29.0644C18.1857 28.0598 18.3218 27.0758 18.587 26.1302L16.1323 25.4416C15.8091 26.5938 15.6362 27.8089 15.6362 29.0644C15.6362 36.4566 21.6288 42.4493 29.0211 42.4493C36.4134 42.4493 42.406 36.4566 42.406 29.0644C42.406 21.6721 36.4134 15.6795 29.0211 15.6795C27.1617 15.6795 25.3908 16.0586 23.7816 16.7439L22.0628 14.6955Z" fill="#FF9066"/>
</svg>
