<svg width="58" height="58" viewBox="0 0 58 58" fill="none" xmlns="http://www.w3.org/2000/svg">
<path opacity="0.21" fill-rule="evenodd" clip-rule="evenodd" d="M0.167969 29.052V35.7445C0.167969 47.8889 10.013 57.7339 22.1574 57.7339H28.8499H35.5423C47.6867 57.7339 57.5318 47.8889 57.5318 35.7444V29.052V22.3596C57.5318 10.2151 47.6867 0.370117 35.5423 0.370117H28.8499H22.1574C10.013 0.370117 0.167969 10.2151 0.167969 22.3596V29.052Z" fill="#4AD991"/>
<path d="M18.4398 39.4623H40.7479C41.5693 39.4623 42.2351 40.1282 42.2351 40.9496C42.2351 41.7709 41.5693 42.4368 40.7479 42.4368H16.9525C16.1312 42.4368 15.4653 41.7709 15.4653 40.9496V17.1542C15.4653 16.3328 16.1312 15.667 16.9525 15.667C17.7739 15.667 18.4398 16.3328 18.4398 17.1542V39.4623Z" fill="#4AD991"/>
<path opacity="0.5" d="M23.9863 33.0434C23.4245 33.6426 22.4833 33.6729 21.8841 33.1112C21.2849 32.5494 21.2545 31.6083 21.8163 31.009L27.3933 25.0602C27.9366 24.4807 28.8394 24.4304 29.4437 24.9461L33.8454 28.7022L39.5805 21.4378C40.0895 20.7931 41.0247 20.6831 41.6693 21.1921C42.314 21.701 42.424 22.6362 41.9151 23.2809L35.2226 31.758C34.6999 32.4201 33.7317 32.5153 33.09 31.9677L28.5926 28.13L23.9863 33.0434Z" fill="#4AD991"/>
</svg>
